<?xml version="1.0"?><svg viewBox="0 0 64 64" xmlns="http://www.w3.org/2000/svg"><defs><style>.cls-1{fill:#f3f9ff;}.cls-2{fill:#ff5272;}.cls-3{fill:#e64a68;}.cls-4{fill:#ffef52;}.cls-5{fill:#1b212d;}</style></defs><g id="Temperature"><path class="cls-1" d="M18,4a6.13,6.13,0,0,0-6.14,6.14V33.42a14,14,0,1,0,12.28,0V10.14A6.13,6.13,0,0,0,18,4Z" id="path6454-6"/><path class="cls-2" d="M18,7.91a2.18,2.18,0,0,0-2.18,2.18V36.23a10,10,0,1,0,4.36,0V10.09A2.18,2.18,0,0,0,18,7.91Z" id="circle6459-8"/><path class="cls-3" d="M23.58,45.93A5.58,5.58,0,1,1,18,40.36,5.58,5.58,0,0,1,23.58,45.93Z" id="path6481-8"/><path class="cls-4" d="M50.18,22.1a6.24,6.24,0,1,1-6.24-6.24A6.24,6.24,0,0,1,50.18,22.1Z" id="path6483-4"/><path class="cls-4" d="M43.94,6a1.43,1.43,0,0,1,1.43,1.43V11a1.43,1.43,0,0,1-2.86,0V7.46A1.43,1.43,0,0,1,43.94,6Z" id="rect6487-3"/><path class="cls-4" d="M43.94,31.77a1.43,1.43,0,0,1,1.43,1.43v3.53a1.43,1.43,0,0,1-2.86,0V33.2A1.43,1.43,0,0,1,43.94,31.77Z" id="rect6489-1"/><path class="cls-4" d="M60,22.1a1.43,1.43,0,0,1-1.43,1.43H55a1.43,1.43,0,0,1,0-2.86h3.53A1.42,1.42,0,0,1,60,22.1Z" id="rect6497-4"/><path class="cls-4" d="M34.26,22.1a1.42,1.42,0,0,1-1.43,1.43H29.3a1.43,1.43,0,0,1,0-2.86h3.53A1.42,1.42,0,0,1,34.26,22.1Z" id="rect6499-9"/><path class="cls-4" d="M55.3,10.74a1.42,1.42,0,0,1,0,2l-2.5,2.5a1.43,1.43,0,1,1-2-2l2.49-2.49A1.44,1.44,0,0,1,55.3,10.74Z" id="rect6501-2"/><path class="cls-4" d="M37.1,28.94a1.42,1.42,0,0,1,0,2l-2.5,2.49a1.43,1.43,0,0,1-2-2l2.5-2.49A1.42,1.42,0,0,1,37.1,28.94Z" id="rect6503-0"/><path class="cls-4" d="M55.3,33.45a1.44,1.44,0,0,1-2,0L50.78,31a1.43,1.43,0,0,1,2-2l2.5,2.49a1.42,1.42,0,0,1,0,2Z" id="rect6505-6"/><path class="cls-4" d="M37.1,15.26a1.42,1.42,0,0,1-2,0l-2.5-2.5a1.43,1.43,0,0,1,2-2l2.5,2.49a1.44,1.44,0,0,1,0,2Z" id="rect6507-8"/><path class="cls-5" d="M18,61a15,15,0,0,0,7.14-28.19V10.14a7.14,7.14,0,0,0-14.28,0V32.81A15,15,0,0,0,18,61ZM12.3,34.32a1,1,0,0,0,.56-.9V10.14a5.14,5.14,0,0,1,10.28,0v.29h-2v-.34a3.18,3.18,0,0,0-6.36,0V35.45A11,11,0,0,0,18,57h0a11,11,0,0,0,3.18-21.57V30.56h2v2.86a1,1,0,0,0,.56.9,13,13,0,1,1-11.4,0Zm8.88-11.8v-4h2v4Zm2,2v4h-2v-4Zm-2-8V12.43h2v4.05ZM20,37.2A9,9,0,0,1,18,55h0A9,9,0,0,1,16,37.2a1,1,0,0,0,.78-1V10.09a1.18,1.18,0,0,1,2.36,0V36.23A1,1,0,0,0,20,37.2Z"/><path class="cls-5" d="M11.42,45.93A6.58,6.58,0,1,0,18,39.36,6.59,6.59,0,0,0,11.42,45.93Zm11.16,0A4.58,4.58,0,1,1,18,41.36,4.59,4.59,0,0,1,22.58,45.93Z"/><path class="cls-5" d="M43.94,29.33A7.24,7.24,0,1,0,36.7,22.1,7.24,7.24,0,0,0,43.94,29.33Zm0-12.47A5.24,5.24,0,1,1,38.7,22.1,5.25,5.25,0,0,1,43.94,16.86Z"/><path class="cls-5" d="M43.94,13.42A2.43,2.43,0,0,0,46.37,11V7.46a2.43,2.43,0,0,0-4.86,0V11A2.43,2.43,0,0,0,43.94,13.42Zm-.43-6a.43.43,0,0,1,.86,0V11a.43.43,0,0,1-.86,0Z"/><path class="cls-5" d="M41.51,33.2v3.53a2.43,2.43,0,0,0,4.86,0V33.2a2.43,2.43,0,1,0-4.86,0Zm2.86,0v3.53a.43.43,0,0,1-.86,0V33.2a.43.43,0,0,1,.86,0Z"/><path class="cls-5" d="M58.57,19.67H55a2.43,2.43,0,0,0,0,4.86h3.53a2.43,2.43,0,0,0,0-4.86Zm0,2.86H55a.43.43,0,0,1,0-.86h3.53a.43.43,0,0,1,0,.86Z"/><path class="cls-5" d="M29.3,24.53h3.53a2.43,2.43,0,1,0,0-4.86H29.3a2.43,2.43,0,0,0,0,4.86Zm0-2.86h3.53a.43.43,0,1,1,0,.86H29.3a.43.43,0,0,1,0-.86Z"/><path class="cls-5" d="M51.79,16.67A2.41,2.41,0,0,0,53.51,16L56,13.47A2.43,2.43,0,0,0,52.57,10l-2.5,2.5a2.43,2.43,0,0,0,1.72,4.14Zm-.31-2.73L54,11.45a.43.43,0,0,1,.3-.13.43.43,0,0,1,.31.13h0a.42.42,0,0,1,.13.3.44.44,0,0,1-.13.3l-2.5,2.5a.43.43,0,1,1-.61-.61Z"/><path class="cls-5" d="M34.37,28.23l-2.5,2.5a2.44,2.44,0,0,0,0,3.43,2.44,2.44,0,0,0,3.44,0l2.49-2.5a2.43,2.43,0,0,0-3.43-3.43Zm2,2-2.5,2.5a.42.42,0,0,1-.6,0,.43.43,0,0,1,0-.61l2.49-2.5a.47.47,0,0,1,.31-.12.42.42,0,0,1,.3.12A.43.43,0,0,1,36.39,30.25Z"/><path class="cls-5" d="M50.07,31.66l2.5,2.5a2.44,2.44,0,0,0,4.15-1.72A2.38,2.38,0,0,0,56,30.73l-2.49-2.5a2.43,2.43,0,0,0-3.44,3.43Zm1.41-2a.47.47,0,0,1,.31-.12.42.42,0,0,1,.3.12l2.5,2.5a.42.42,0,0,1,0,.61h0a.43.43,0,0,1-.61,0l-2.5-2.5A.43.43,0,0,1,51.48,29.64Z"/><path class="cls-5" d="M34.37,16a2.43,2.43,0,0,0,3.43,0,2.42,2.42,0,0,0,0-3.43L35.31,10a2.49,2.49,0,0,0-3.44,0,2.45,2.45,0,0,0,0,3.44Zm-1.08-4.51a.41.41,0,0,1,.6,0l2.5,2.49a.43.43,0,1,1-.61.61l-2.49-2.5A.42.42,0,0,1,33.29,11.45Z"/></g></svg>